<svg id="contact-us-path" xmlns="http://www.w3.org/2000/svg" xmlns:xlink="http://www.w3.org/1999/xlink" width="1922" height="1744" viewBox="0 0 1922 1744">
  <defs>
    <clipPath id="clip-path">
      <rect id="Rectangle_1604" data-name="Rectangle 1604" width="1922" height="1744" fill="none"/>
    </clipPath>
    <linearGradient id="linear-gradient" x1="-0.277" y1="-0.514" x2="-0.281" y2="-1.524" gradientUnits="objectBoundingBox">
      <stop offset="0" stop-color="#e9eff9"/>
      <stop offset="0.999" stop-color="#fff"/>
    </linearGradient>
    <linearGradient id="linear-gradient-2" x1="-1.859" y1="-3.438" x2="2.125" y2="2.953" gradientUnits="objectBoundingBox">
      <stop offset="0" stop-color="#e9eff9"/>
      <stop offset="0.547" stop-color="#fff"/>
    </linearGradient>
    <linearGradient id="linear-gradient-3" x1="-3.703" y1="-7.824" x2="4.447" y2="8.266" xlink:href="#linear-gradient-2"/>
    <linearGradient id="linear-gradient-4" x1="-4.474" y1="-6.709" x2="1.955" y2="1.526" xlink:href="#linear-gradient-2"/>
    <linearGradient id="linear-gradient-5" x1="-2.053" y1="-4.49" x2="1.577" y2="1.517" xlink:href="#linear-gradient-2"/>
    <linearGradient id="linear-gradient-6" x1="0.416" y1="0.323" x2="0.199" y2="-0.781" xlink:href="#linear-gradient"/>
    <linearGradient id="linear-gradient-7" x1="0.159" y1="0.735" x2="0.199" y2="0.188" xlink:href="#linear-gradient"/>
    <linearGradient id="linear-gradient-8" x1="-0.284" y1="0.178" x2="-0.112" y2="-0.529" xlink:href="#linear-gradient"/>
    <linearGradient id="linear-gradient-9" x1="-0.403" y1="-0.922" x2="-1.238" y2="-2.398" xlink:href="#linear-gradient-2"/>
    <linearGradient id="linear-gradient-10" x1="0.5" y1="1.301" x2="0.5" y2="0.301" xlink:href="#linear-gradient"/>
  </defs>
  <g id="Group_1919" data-name="Group 1919" clip-path="url(#clip-path)">
    <g id="Group_1918" data-name="Group 1918" transform="translate(-830.651 209.037)">
      <path id="Path_2179" data-name="Path 2179" d="M6233.87,11445.5c122.837,509.087,506.957,802.626,1021.995,129.872l-379.04,153.967Z" transform="translate(-5424.175 -10826.537)" fill="url(#linear-gradient)"/>
      <g id="Group_1916" data-name="Group 1916" transform="translate(806.975 402.687)">
        <path id="Path_2180" data-name="Path 2180" d="M6600.317,11492.059q-55.05,64.613-103.6,112.741c207.871,86.284,397.656,145.955,498.572,125.179,101.2-20.834,169.425-95.443,241.436-170.658C6971.314,11300.385,6845.9,11203.807,6600.317,11492.059Z" transform="translate(-6233.319 -11229.224)" fill="url(#linear-gradient-2)"/>
        <path id="Path_2181" data-name="Path 2181" d="M6593.574,11599.168c-120.011-49.814-247.087-110.05-362.447-166.415" transform="translate(-6231.127 -11229.224)" fill="url(#linear-gradient-3)"/>
        <path id="Path_2182" data-name="Path 2182" d="M8109.442,11267.411c-33.325,39.294-97.194,154.066-181.749,265.541,82.808,26.012,170.287,33.163,275.749-13.541l182.588,4.543C8307.888,11354.162,8216.492,11141.187,8109.442,11267.411Z" transform="translate(-6245.125 -11229.224)" fill="url(#linear-gradient-4)"/>
        <path id="Path_2183" data-name="Path 2183" d="M7586.958,11377.831c-163.908-1.776-256.77,90.3-344.074,181.489,48.959,47.763,102.675,101.044,162.793,158.46,248.63,237.455,483.451,28.734,650.021-190.868C7905.514,11479.736,7768.39,11379.8,7586.958,11377.831Z" transform="translate(-6239.475 -11229.224)" fill="url(#linear-gradient-5)"/>
      </g>
      <path id="Path_2184" data-name="Path 2184" d="M5822.757,11362.02c-83.368,11.773-151.245,57.858-234.961,26.544-69.87-26.138-127.347-85.9-152.371-155.761-38.278-106.855-11.677-228.191,44.1-327.1,24.057-42.662,64.924-87.4,113.077-77.869,30.611,6.059,52.6,32.837,67.648,60.095,34.121,61.816,63.159,114.341,142.287,118.958,47.65,2.78,94.37-12.136,139.592-27.359s91.417-31.134,139.145-30.433c190.907,2.8,258.723,215.929,329.584,354.58,65.852,128.853,169.309,283.446,319.566,296.662,131.727,11.586,277.943-96.553,364.985-185.162,98.376-100.147,200.285-208.687,311.71-296.722,270.2-213.479,397.6,104.162,617.086,200.592,128.738,56.561,224.884,10.23,304.615-101.021,65.823-91.848,112.021-202.438,204.392-267.723,63.5-44.882,170.617-51.99,203.511,18.343,27.736,59.31-17.565,125.394-60.183,175.164-79.842,93.243-160.439,187.211-257.771,262.141s-213.918,130.379-336.808,134.994c-240.02,9.015-475.259-172.923-704.168-100.4-111.383,35.287-195.124,124.646-283.322,201.09s-198.643,145.98-314.076,127.754c-113.478-17.918-194.936-113.671-282.517-187.8C6310.006,11422.573,6066.771,11327.56,5822.757,11362.02Z" transform="translate(-5417.438 -10826.537)" fill="url(#linear-gradient-6)"/>
      <g id="Group_1917" data-name="Group 1917" transform="translate(101.737 0.001)">
        <path id="Path_2185" data-name="Path 2185" d="M5661.1,10887.929c-15.046-27.258-37.038-54.036-67.649-60.095-27.428-5.429-52.486,6.76-73.425,26.132l73.275,243.873s111.666,80.712,388.747,215.146c40.114,19.462,86.229,42.352,136.3,67.128a869.291,869.291,0,0,1,102.911,33.585c-73.59-346.9-178.938-402.138-400.729-406.559-5.7.147-11.412.082-17.14-.252C5724.253,11002.27,5695.215,10949.745,5661.1,10887.929Z" transform="translate(-5520.021 -10826.538)" fill="#e9eff9"/>
      </g>
      <path id="Path_2186" data-name="Path 2186" d="M8526.685,11305.15c-13.594,38.632-43.929,68.881-75.077,95.559-90.541,77.55-193.282,151.935-311.682,178.82-157.857,35.836-295.748-51.5-437.51-104.415-82.979-30.965-174.465-46.934-259.816-23.294-186.516,51.642-398.952,392.332-601.183,389.024-166.889-2.738-263.777-120.716-370.745-207.837-78.317-63.784-157.9-136.394-242.731-187.512-112.6-67.913-234.42-97.982-374.7-19.427-1.473.824-2.914,1.65-4.387,2.477-74.588,42.874-169,110.775-252.915,49.266-45.726-33.486-60.674-94.177-68.612-150.209-1.055-7.612-2.076-15.226-2.992-22.836-.95-7.646-1.832-15.255-2.574-22.895a1238.475,1238.475,0,0,1,22.684-394.763c5.854-26.548,19.179-58.565,46.431-59.576,28.672-1.08,43.709,32.574,53.03,59.6,44.642,129.3,127.284,231.818,228.31,315.825,103.193,85.854,225.587,152.322,346.207,208.158.753.363,1.506.691,2.257,1.056,90.016,41.555,175.226,88.439,265.148,129.544,180.017,82.248,369.04,112.852,547.413,7.9,164.117-96.55,279.866-281.453,492.083-265.206,198.751,15.188,300.955,252.452,495.569,249.086,65.311-1.134,126.316-36.242,172.14-82.659,58.283-59.006,91.339-135.642,143.133-199.431a304.858,304.858,0,0,1,28.985-31.524c12.75-11.822,26.809-22.026,42.625-29.15,28.83-12.974,64.6-14.118,90.685,3.705C8532.3,11217.623,8540.245,11266.517,8526.685,11305.15Z" transform="translate(-5418.244 -10826.537)" fill="url(#linear-gradient-7)"/>
      <path id="Path_2187" data-name="Path 2187" d="M8153.577,11579.534c37.721-8.567,73.847-21.971,108.5-38.748-564.423-440.121-625.462-339.11-1090.358,117.007l.009.008c98.182-88.528,194.384-181.015,284.53-205.984,85.346-23.642,176.85-7.665,259.806,23.293C7857.828,11528.012,7995.731,11615.382,8153.577,11579.534Z" transform="translate(-5431.913 -10826.537)" fill="url(#linear-gradient-8)"/>
      <path id="Path_2188" data-name="Path 2188" d="M6227.962,11445.5c-112.6-67.913-234.42-97.982-374.7-19.427-1.472.824-2.913,1.65-4.386,2.477-74.588,42.874-169,110.775-252.915,49.266-45.727-33.486-60.674-94.177-68.612-150.209-1.055-7.612-2.076-15.226-2.992-22.836-.916-7.645-1.8-15.254-2.575-22.895q-2.332-22.923-3.832-45.895c91.223,1.546,225.771-30.455,354.288-33.018q17.133-.35,34.108.056c136.152,3.388,260.4,46.967,312.1,208.1C6221.977,11422.034,6225.15,11433.459,6227.962,11445.5Z" transform="translate(-5418.268 -10826.537)" fill="url(#linear-gradient-9)"/>
    </g>
  </g>
  <circle id="Ellipse_182" data-name="Ellipse 182" cx="100.5" cy="100.5" r="100.5" transform="translate(1402 1138)" fill="url(#linear-gradient-10)"/>
</svg>
