<svg id="message-icon" xmlns="http://www.w3.org/2000/svg" xmlns:xlink="http://www.w3.org/1999/xlink" width="24" height="23.999" viewBox="0 0 24 23.999">
  <defs>
    <linearGradient id="linear-gradient" x1="0.5" y1="1.147" x2="0.5" y2="-0.697" gradientUnits="objectBoundingBox">
      <stop offset="0" stop-color="#3fa9f5"/>
      <stop offset="0.187" stop-color="#66baf7" stop-opacity="0.792"/>
      <stop offset="0.59" stop-color="#b7dffb" stop-opacity="0.373"/>
      <stop offset="0.869" stop-color="#ebf6fd" stop-opacity="0.102"/>
      <stop offset="1" stop-color="#fff" stop-opacity="0"/>
    </linearGradient>
  </defs>
  <path id="message-icon-2" data-name="message-icon" d="M11703.953,9764.956a.938.938,0,1,1-.937.937A.937.937,0,0,1,11703.953,9764.956Zm3.282.937a.938.938,0,1,0,.937-.937A.937.937,0,0,0,11707.235,9765.893Zm-8.438,0a.938.938,0,1,0,.938-.937A.938.938,0,0,0,11698.8,9765.893Zm16.379,8.792a2.813,2.813,0,0,1-3.977,3.979l-5.146-5.135a.935.935,0,0,1-.234-.392l-1.121-3.689a.936.936,0,0,1,1.146-1.176l3.784,1.048a.94.94,0,0,1,.412.239Zm-7.633-2.317,3.473,3.465,1.326-1.326-3.452-3.446-1.9-.526Zm6.308,3.645-.181-.181-1.326,1.326.181.18a.937.937,0,0,0,1.326-1.325Zm-9.328-1.1c-.175.007-.35.011-.522.011a11.362,11.362,0,0,1-4.313-.834.942.942,0,0,0-.72,0l-4.268,1.8,1.438-3.407a.935.935,0,0,0-.164-.988,7.95,7.95,0,0,1-2.1-5.336c0-4.855,4.542-8.8,10.125-8.8s10.125,3.949,10.125,8.8a7.728,7.728,0,0,1-.84,3.436.937.937,0,1,0,1.681.831,9.574,9.574,0,0,0,1.034-4.267c0-5.889-5.383-10.68-12-10.68s-12,4.791-12,10.68a9.726,9.726,0,0,0,2.186,6.124l-2.111,5a.937.937,0,0,0,.864,1.3.945.945,0,0,0,.363-.072l6.044-2.553a13.222,13.222,0,0,0,4.654.83c.2,0,.4,0,.6-.013a.937.937,0,0,0-.081-1.873Z" transform="translate(-11692 -9755.487)" opacity="0.75" fill="url(#linear-gradient)"/>
</svg>
