<svg xmlns="http://www.w3.org/2000/svg" xmlns:xlink="http://www.w3.org/1999/xlink" width="28.091" height="26.984" viewBox="0 0 28.091 26.984">
  <defs>
    <linearGradient id="linear-gradient" x1="0.48" y1="1.428" x2="0.54" y2="-1.215" gradientUnits="objectBoundingBox">
      <stop offset="0" stop-color="#3fa9f5"/>
      <stop offset="0.187" stop-color="#66baf7" stop-opacity="0.792"/>
      <stop offset="0.59" stop-color="#b7dffb" stop-opacity="0.373"/>
      <stop offset="0.869" stop-color="#ebf6fd" stop-opacity="0.102"/>
      <stop offset="1" stop-color="#fff" stop-opacity="0"/>
    </linearGradient>
  </defs>
  <g id="phone-icon" transform="translate(-11691.462 -9474.474)" opacity="0.75">
    <g id="Group_1592" data-name="Group 1592">
      <path id="Path_1848" data-name="Path 1848" d="M11716.021,9474.8a2.678,2.678,0,0,0-1.37-.321,2.738,2.738,0,0,0-1.776.568c-.149.137-3.469,3.78-3.5,3.81l-.053.066a3.1,3.1,0,0,0-.483.692,2.626,2.626,0,0,0,.435,2.875l1.341,1.452a3.155,3.155,0,0,1,.387.494l.013.034a.157.157,0,0,1-.039.056l-9.095,8.451a1.144,1.144,0,0,1-.188-.021,1.316,1.316,0,0,1-.446-.3l-1.355-1.45a2.518,2.518,0,0,0-.991-.65,2.644,2.644,0,0,0-1.855.027,2.718,2.718,0,0,0-.663.381l-.03.021c-.024.017-3.969,3.106-4.143,3.269a2.591,2.591,0,0,0-.6,1.011,2.713,2.713,0,0,0-.145.9,2.5,2.5,0,0,0,.085.67,2.593,2.593,0,0,0,.532,1.058c.087.094.313.285.313.285a15.021,15.021,0,0,0,4.538,2.827,7.351,7.351,0,0,0,2.3.456c4.374.119,10.6-5.345,12.41-7.022s7.709-7.492,7.91-11.867c.119-2.612-1.468-5.319-2.8-7.08-.071-.1-.178-.239-.241-.307A2.385,2.385,0,0,0,11716.021,9474.8Zm-1.291,1.315a1.183,1.183,0,0,1,.438.082.979.979,0,0,1,.151.106c.023.028.069.094.1.129l.044.06c1.153,1.529,2.554,3.848,2.454,6-.137,2.987-4.067,7.656-7.391,10.744s-8.266,6.667-11.254,6.585a5.74,5.74,0,0,1-1.784-.36,13.419,13.419,0,0,1-4.028-2.531c-.02-.015-.129-.106-.182-.159a1.665,1.665,0,0,1-.155-.4.815.815,0,0,1-.021-.214,1.121,1.121,0,0,1,.041-.324,1.438,1.438,0,0,1,.193-.393c.184-.155,3.575-2.82,3.953-3.113a.922.922,0,0,0,.086-.061,1.1,1.1,0,0,1,.272-.162,1.015,1.015,0,0,1,.706-.012.863.863,0,0,1,.346.226l1.357,1.453a2.783,2.783,0,0,0,1.347.79,1.676,1.676,0,0,0,1.511-.308l9.187-8.538a1.759,1.759,0,0,0,.563-1.228,1.719,1.719,0,0,0-.148-.694,4.039,4.039,0,0,0-.69-.966l-1.343-1.453a.956.956,0,0,1-.163-1.045,1.412,1.412,0,0,1,.214-.3l.11-.135c.158-.174,3.181-3.483,3.366-3.673A2.493,2.493,0,0,1,11714.73,9476.112Z" fill="url(#linear-gradient)"/>
    </g>
  </g>
</svg>
