<svg id="world-icon" xmlns="http://www.w3.org/2000/svg" xmlns:xlink="http://www.w3.org/1999/xlink" width="30" height="29.999" viewBox="0 0 30 29.999">
  <defs>
    <linearGradient id="linear-gradient" x1="0.505" y1="1.229" x2="0.491" y2="-0.771" gradientUnits="objectBoundingBox">
      <stop offset="0" stop-color="#3fa9f5"/>
      <stop offset="0.187" stop-color="#66baf7" stop-opacity="0.792"/>
      <stop offset="0.59" stop-color="#b7dffb" stop-opacity="0.373"/>
      <stop offset="0.869" stop-color="#ebf6fd" stop-opacity="0.102"/>
      <stop offset="1" stop-color="#fff" stop-opacity="0"/>
    </linearGradient>
  </defs>
  <g id="world-icon-2" data-name="world-icon" transform="translate(-11689 -9660.5)" opacity="0.75">
    <g id="Group_1602" data-name="Group 1602">
      <path id="Path_1852" data-name="Path 1852" d="M11716.99,9668a14.993,14.993,0,1,0-7.623,21.5.586.586,0,1,0-.42-1.094,13.736,13.736,0,0,1-13.219-1.817l.525-2.739.253-.082a1.825,1.825,0,0,0,1.17-2.3l-.185-.57a.65.65,0,0,1,0-.4,1.821,1.821,0,0,0-1.382-2.356l-1.322-.259-2.552-1.939a.581.581,0,0,0-.536-.091l-1.493.484a13.659,13.659,0,0,1,0-1.6c.059.055.1.092.121.117a.635.635,0,0,0,.107.132.6.6,0,0,0,.466.161,8.453,8.453,0,0,0,1.05-.119c.494-.073.985-.156.991-.156a.586.586,0,0,0,.387-.908l-.719-1.054,1.028-.736a.573.573,0,0,0,.168-.185l1.6-2.785.643-.688a2.473,2.473,0,0,0,.478-2.624,2.691,2.691,0,0,0-1.067-1.258,13.885,13.885,0,0,1,1.639-1.109,13.744,13.744,0,0,1,6.752-1.849L11702.8,9663l-3.879,1.36a.583.583,0,0,0-.348.328l-1.084,2.627a.589.589,0,0,0,.064.564l1.583,2.217a5.522,5.522,0,0,0-.711.881c-.116.164-.225.319-.3.406s-.131.15-.2.223a5.486,5.486,0,0,0-.942,1.309,3.491,3.491,0,0,0,.29,3.529,3.291,3.291,0,0,0,3.1,1.333,4.742,4.742,0,0,0,.572-.116c.5-.124.662-.138.823.014.077.074.086.088.084.337a2.318,2.318,0,0,0,.052.58,1.858,1.858,0,0,0,.5.81,1.289,1.289,0,0,1,.213.271,1.462,1.462,0,0,1-.071,1.212l-.046.139a3.3,3.3,0,0,0,.43,2.352c.106.232.206.453.272.647.525,1.563.921,1.922,1.238,2.065a1.212,1.212,0,0,0,.512.108,3.277,3.277,0,0,0,2.13-1.281,1.8,1.8,0,0,0,.363-.854.963.963,0,0,1,.074-.262,1.586,1.586,0,0,1,.192-.247,2.019,2.019,0,0,0,.479-.8,1.3,1.3,0,0,1,.4-.624c.04-.043.083-.088.129-.139a1.877,1.877,0,0,0,.367-2.185c-.179-.578.134-.947.892-1.652a6.44,6.44,0,0,0,.931-1,1.267,1.267,0,0,0,.248-1.175c-.212-.49-.751-.573-1.184-.64a1.946,1.946,0,0,1-.512-.12,2.77,2.77,0,0,1-.8-1.21c-.042-.095-.085-.188-.127-.28-.076-.163-.153-.359-.233-.567a4.92,4.92,0,0,0-.866-1.613,3.735,3.735,0,0,0-1.681-.747c-.207-.056-.4-.108-.531-.157a.583.583,0,0,0-.337-.02,1.52,1.52,0,0,0-.624.258.732.732,0,0,0-.209.281,6.861,6.861,0,0,1-.69-.421l-.012-.007a.826.826,0,0,0-.052-.564c-.328-.693-1.414-.638-1.628-.62-.122.01-.276.015-.438.021-.257.009-.539.019-.819.051l.015-.04a1.5,1.5,0,0,1,1.406-.99h.333a.586.586,0,0,0,0-1.172h-.333a2.675,2.675,0,0,0-2.268,1.265l-.874-1.224.859-2.084,3.791-1.329a.6.6,0,0,0,.266-.187l1.685-2.114a13.788,13.788,0,0,1,12.063,10.2l-.249.221a1.566,1.566,0,0,0-.521,1.139v.015l-.405-1.113a1.447,1.447,0,0,0-.264-.453l-.722-.845a1.47,1.47,0,0,0-1.118-.516h-.883a.849.849,0,0,0-.706,1.319l.089.135a6.506,6.506,0,0,1-1.935,1.148l-1.211-2.319v-.518a.584.584,0,0,0-.182-.424l-1.09-1.041a.58.58,0,0,0-.211-.129l-.981-.346a.586.586,0,0,0-.389,1.106l.863.3.817.781v.41a.578.578,0,0,0,.067.271l1.516,2.905a.587.587,0,0,0,.723.278l.44-.162a7.664,7.664,0,0,0,2.75-1.761.584.584,0,0,0,.073-.738l-.031-.047h.279a.3.3,0,0,1,.228.1l.722.845a.291.291,0,0,1,.054.092l.8,2.19a.591.591,0,0,0,.424.372.622.622,0,0,0,.127.013.581.581,0,0,0,.414-.171l.379-.379a1.823,1.823,0,0,0,.485-.881,13.878,13.878,0,0,1-5.151,12.618.586.586,0,1,0,.724.921,15,15,0,0,0,3.713-19.285Zm-25.219,9.063,2.415,1.837a.583.583,0,0,0,.242.107l1.456.285a.651.651,0,0,1,.494.842,1.812,1.812,0,0,0,0,1.131l.187.571a.652.652,0,0,1-.419.82l-.581.189a.589.589,0,0,0-.4.447l-.468,2.446a13.991,13.991,0,0,1-2.669-3.329,13.727,13.727,0,0,1-1.7-4.88Zm3.413-9.346-.688.738a.629.629,0,0,0-.08.109l-1.565,2.732-1.391.994a.585.585,0,0,0-.143.807l.52.764c-.3.045-.569.081-.748.1-.034-.033-.07-.066-.107-.1-.14-.129-.332-.3-.621-.556a13.846,13.846,0,0,1,4.127-7.837,1.522,1.522,0,0,1,.948.869A1.3,1.3,0,0,1,11695.185,9667.722Zm4.778,3.2a3.763,3.763,0,0,1,1.311-.185c.178-.006.345-.013.494-.024a1.528,1.528,0,0,1,.25,0,.589.589,0,0,0,.27.729c.11.058.263.16.425.268a3.38,3.38,0,0,0,1.465.684.977.977,0,0,0,.8-.332l.024-.025a.608.608,0,0,0,.157-.192c.094.027.191.055.293.081a3.952,3.952,0,0,1,1.136.42,4.171,4.171,0,0,1,.625,1.231c.088.228.171.443.264.643.041.085.08.175.12.264a3.66,3.66,0,0,0,1.228,1.711,2.422,2.422,0,0,0,.975.3l.128.02a5.6,5.6,0,0,1-.744.78c-.725.676-1.628,1.517-1.212,2.858.2.633.205.7-.109,1.045l-.121.129a2.4,2.4,0,0,0-.66,1.072.922.922,0,0,1-.239.371,2.64,2.64,0,0,0-.328.435,1.9,1.9,0,0,0-.212.623.714.714,0,0,1-.122.343,3.412,3.412,0,0,1-.74.654.956.956,0,0,1-.49.2,4.175,4.175,0,0,1-.632-1.376,7.82,7.82,0,0,0-.314-.758,2.52,2.52,0,0,1-.382-1.507l.044-.134a2.557,2.557,0,0,0,.039-2.028,2.112,2.112,0,0,0-.426-.607,1.111,1.111,0,0,1-.225-.3,1.266,1.266,0,0,1-.019-.3,1.451,1.451,0,0,0-.455-1.2,1.886,1.886,0,0,0-1.905-.3,3.824,3.824,0,0,1-.427.09,2.107,2.107,0,0,1-2.018-.854,2.319,2.319,0,0,1-.182-2.345,4.442,4.442,0,0,1,.759-1.03c.068-.076.137-.154.205-.232.114-.133.24-.311.373-.5A4.189,4.189,0,0,1,11699.963,9670.924Z" fill="url(#linear-gradient)"/>
    </g>
  </g>
</svg>
