<?xml version="1.0" encoding="utf-8"?>
<!-- Generator: Adobe Illustrator 23.0.6, SVG Export Plug-In . SVG Version: 6.00 Build 0)  -->
<svg version="1.1" id="katman_1" xmlns="http://www.w3.org/2000/svg" xmlns:xlink="http://www.w3.org/1999/xlink" x="0px" y="0px"
	 viewBox="0 0 1920 5600" style="enable-background:new 0 0 1920 5600;" xml:space="preserve">
<style type="text/css">
	.st0{fill:url(#Path_1866_1_);}
	.st1{fill:url(#Path_1867_1_);}
	.st2{opacity:0.57;fill:url(#Path_1868_1_);enable-background:new    ;}
	.st3{fill:url(#Path_1869_1_);}
	.st4{fill:url(#Path_1870_1_);}
	.st5{opacity:0.25;fill:url(#Path_1871_1_);enable-background:new    ;}
	.st6{fill:url(#Path_1872_1_);}
	.st7{fill:none;}
	.st8{opacity:0.22;fill:none;stroke:#FFFFFF;enable-background:new    ;}
	.st9{opacity:0.5;}
	.st10{opacity:0.7;fill:url(#Ellipse_4_1_);enable-background:new    ;}
	.st11{opacity:0.7;fill:url(#Ellipse_4-2_1_);enable-background:new    ;}
	.st12{opacity:0.7;fill:url(#Ellipse_4-3_1_);enable-background:new    ;}
	.st13{opacity:0.7;fill:url(#Ellipse_4-4_1_);enable-background:new    ;}
	.st14{opacity:0.36;}
	.st15{opacity:0.36;fill:none;stroke:#BCBCBC;stroke-width:4;stroke-miterlimit:10;stroke-dasharray:12;enable-background:new    ;}
	.st16{fill:none;stroke:#008BCE;stroke-width:4;stroke-miterlimit:10;}
	.st17{opacity:0.36;fill:none;stroke:#008BCE;stroke-width:4;stroke-miterlimit:10;enable-background:new    ;}
	.st18{opacity:0.36;fill:#4EA4C6;enable-background:new    ;}
	.st19{fill:url(#Rectangle_1458_1_);}
</style>
<g id="Group_1764" transform="translate(-7661.001 -7308.61)">
	<g id="Component_1_1" transform="translate(8176.074 7308.61)">
		
			<linearGradient id="Path_1866_1_" gradientUnits="userSpaceOnUse" x1="-514.3047" y1="5601.9277" x2="-514.3047" y2="5603.353" gradientTransform="matrix(1991.1572 0 0 -1507.4136 1024485.5625 8445428)">
			<stop  offset="0" style="stop-color:#E9EFF9"/>
			<stop  offset="0.199" style="stop-color:#EDF2FA;stop-opacity:0.78"/>
			<stop  offset="0.596" style="stop-color:#F6F9FC;stop-opacity:0.365"/>
			<stop  offset="0.871" style="stop-color:#FCFDFE;stop-opacity:0.102"/>
			<stop  offset="1" style="stop-color:#FFFFFF;stop-opacity:0"/>
		</linearGradient>
		<path id="Path_1866" class="st0" d="M-571.6,781.4c0,0,337.7,132.1,671.6-201.9s600.1-130.3,829.4-112.4c243.5,19,338-157,277-386
			c-45-169.1,398-410,122-750c-118.2-145.6-1059.5,268.4-1081.5,162h-818.5V781.4z"/>
		
			<linearGradient id="Path_1867_1_" gradientUnits="userSpaceOnUse" x1="-514.2565" y1="5601.4233" x2="-514.2565" y2="5602.7441" gradientTransform="matrix(2131.6064 0 0 -1681.1108 1096456.875 9418415)">
			<stop  offset="0" style="stop-color:#E9EFF9"/>
			<stop  offset="0.199" style="stop-color:#EDF2FA;stop-opacity:0.78"/>
			<stop  offset="0.596" style="stop-color:#F6F9FC;stop-opacity:0.365"/>
			<stop  offset="0.871" style="stop-color:#FCFDFE;stop-opacity:0.102"/>
			<stop  offset="1" style="stop-color:#FFFFFF;stop-opacity:0"/>
		</linearGradient>
		<path id="Path_1867" class="st1" d="M-531.5,1083.1c0,0,421.8,83.5,741.7-376.4s783.4-104.6,1017.4-244.6
			c258.9-154.9-51.6-300.4-70.1-513.6C1139.5-258.3,939.7-525.4,718.9-499s-517,26.5-565.1-93.1l-955.3,171.5L-531.5,1083.1z"/>
		
			<linearGradient id="Path_1868_1_" gradientUnits="userSpaceOnUse" x1="-514.4412" y1="5601.6953" x2="-514.4412" y2="5603.1191" gradientTransform="matrix(1677.9922 0 0 -1592.9839 863802.8125 8924900)">
			<stop  offset="0" style="stop-color:#E9EFF9"/>
			<stop  offset="1" style="stop-color:#FFFFFF;stop-opacity:0"/>
		</linearGradient>
		<path id="Path_1868" class="st2" d="M1413.4,1085.4c0,0-220-271.2-671.6-201.9C274.9,955.3,59.3,684.2,27.4,504.2
			c-45-254-111.5-275.3-241-370c-145-106,40-372,294-244C243-27.9,572.9-96.4,595-202.8c128.5-584,818.5-149,818.5-149V1085.4z"/>
	</g>
	<g id="Group_1613">
		
			<linearGradient id="Path_1869_1_" gradientUnits="userSpaceOnUse" x1="7661.4199" y1="12909.707" x2="7661.4199" y2="12910.4854" gradientTransform="matrix(1347.5527 0 0 -2847.4434 -10315826 36771692)">
			<stop  offset="0" style="stop-color:#E9EFF9"/>
			<stop  offset="0.122" style="stop-color:#EDF2FA;stop-opacity:0.78"/>
			<stop  offset="0.366" style="stop-color:#F6F9FC;stop-opacity:0.365"/>
			<stop  offset="0.536" style="stop-color:#FCFDFE;stop-opacity:0.102"/>
			<stop  offset="0.615" style="stop-color:#FFFFFF;stop-opacity:0"/>
		</linearGradient>
		<path id="Path_1869" class="st3" d="M7667.9,12051.1c0,0,162.1-499.6,597.4-420.9s750.2-185.2,750.2-472.3
			s-69.5-527.9-657.6-527.9s-690-893.7-690-1426.3V12051.1z"/>
		
			<linearGradient id="Path_1870_1_" gradientUnits="userSpaceOnUse" x1="7661.4199" y1="12909.6377" x2="7661.4199" y2="12910.5742" gradientTransform="matrix(1347.5518 0 0 -2565.4434 -10316203 33131348)">
			<stop  offset="0" style="stop-color:#E9EFF9"/>
			<stop  offset="0.199" style="stop-color:#EDF2FA;stop-opacity:0.78"/>
			<stop  offset="0.596" style="stop-color:#F6F9FC;stop-opacity:0.365"/>
			<stop  offset="0.871" style="stop-color:#FCFDFE;stop-opacity:0.102"/>
			<stop  offset="1" style="stop-color:#FFFFFF;stop-opacity:0"/>
		</linearGradient>
		<path id="Path_1870" class="st4" d="M7283.5,11935.8c0,0,162.1-217.6,597.4-138.9s750.2-185.2,750.2-472.3
			s-69.5-527.9-657.6-527.9s-690-893.7-690-1426.3V11935.8z"/>
	</g>
	<g id="Group_1614">
		
			<linearGradient id="Path_1871_1_" gradientUnits="userSpaceOnUse" x1="7661.9468" y1="12909.8984" x2="7661.9868" y2="12911.3818" gradientTransform="matrix(2697.6099 0 0 -2359.1172 -20660740 30466636)">
			<stop  offset="0" style="stop-color:#E9EFF9"/>
			<stop  offset="0.199" style="stop-color:#EDF2FA;stop-opacity:0.78"/>
			<stop  offset="0.596" style="stop-color:#F6F9FC;stop-opacity:0.365"/>
			<stop  offset="0.871" style="stop-color:#FCFDFE;stop-opacity:0.102"/>
			<stop  offset="1" style="stop-color:#FFFFFF;stop-opacity:0"/>
		</linearGradient>
		<path id="Path_1871" class="st5" d="M9590.8,9355.3c-476.3,486.1-668.3-296.6-1454.2,73.1
			c-710.9,334.4-1243.4-813.5-1243.4-1180.2v1597.2c0,0,764.3,593.2,1518.8,301s1178.8,461,1178.8,461L9590.8,9355.3z"/>
		
			<linearGradient id="Path_1872_1_" gradientUnits="userSpaceOnUse" x1="7661.9697" y1="12910.9004" x2="7661.9878" y2="12911.9844" gradientTransform="matrix(2731.3301 0 0 -1523.9688 -20919138 19685678)">
			<stop  offset="0" style="stop-color:#E9EFF9"/>
			<stop  offset="0.199" style="stop-color:#EDF2FA;stop-opacity:0.78"/>
			<stop  offset="0.596" style="stop-color:#F6F9FC;stop-opacity:0.365"/>
			<stop  offset="0.871" style="stop-color:#FCFDFE;stop-opacity:0.102"/>
			<stop  offset="1" style="stop-color:#FFFFFF;stop-opacity:0"/>
		</linearGradient>
		<path id="Path_1872" class="st6" d="M9590.8,9501.4c-248.3-189.7-925,427.6-1454.2-198.1c-369.5-437-515.6-573.2-1243.4-573.2
			l-33.7,1334.7c0,0,889.4-490.3,1552.5-43.6c494.8,333.4,1178.8,210.8,1178.8,210.8L9590.8,9501.4z"/>
	</g>
	<line id="Line_11" class="st7" x1="8275.9" y1="8453.6" x2="8302.9" y2="8453.6"/>
	<line id="Line_15" class="st8" x1="9389.2" y1="8117.7" x2="9298.2" y2="8117.7"/>
	<line id="Line_16" class="st8" x1="8273.5" y1="8337.3" x2="8181.5" y2="8336.3"/>
	<g id="Group_8" class="st9">
		<g id="Group_1621">
			<g id="Group_7">
				
					<linearGradient id="Ellipse_4_1_" gradientUnits="userSpaceOnUse" x1="7658.6968" y1="12916.7119" x2="7658.7627" y2="12918.8564" gradientTransform="matrix(384.35 0 0 -384.35 -2934429 4973821)">
					<stop  offset="0" style="stop-color:#E9EFF9"/>
					<stop  offset="1" style="stop-color:#FFFFFF;stop-opacity:0"/>
				</linearGradient>
				<circle id="Ellipse_4" class="st10" cx="9196.7" cy="9099.4" r="192.2"/>
			</g>
		</g>
	</g>
	<g id="Group_8-2" class="st9">
		<g id="Group_1622">
			<g id="Group_7-2">
				
					<linearGradient id="Ellipse_4-2_1_" gradientUnits="userSpaceOnUse" x1="7661.2847" y1="12911.1953" x2="7661.3506" y2="12913.3389" gradientTransform="matrix(1212.0179 0 0 -1212.0179 -9276620 15661399)">
					<stop  offset="0" style="stop-color:#E9EFF9"/>
					<stop  offset="1" style="stop-color:#FFFFFF;stop-opacity:0"/>
				</linearGradient>
				<circle id="Ellipse_4-2" class="st11" cx="9012.3" cy="12220.7" r="606"/>
			</g>
		</g>
	</g>
	<g id="Group_8-3" class="st9">
		<g id="Group_1623">
			<g id="Group_7-3">
				
					<linearGradient id="Ellipse_4-3_1_" gradientUnits="userSpaceOnUse" x1="7658.3481" y1="12917.4551" x2="7658.4141" y2="12919.5986" gradientTransform="matrix(351.97 0 0 -351.97 -2687329.75 4558715.5)">
					<stop  offset="0" style="stop-color:#E9EFF9"/>
					<stop  offset="1" style="stop-color:#FFFFFF;stop-opacity:0"/>
				</linearGradient>
				<circle id="Ellipse_4-3" class="st12" cx="8184.3" cy="11990.8" r="176"/>
			</g>
		</g>
	</g>
	<g id="Group_8-4" class="st9">
		<g id="Group_1624">
			<g id="Group_7-4">
				
					<linearGradient id="Ellipse_4-4_1_" gradientUnits="userSpaceOnUse" x1="7653.5459" y1="12927.6943" x2="7653.6118" y2="12929.8379" gradientTransform="matrix(162.908 0 0 -162.908 -1237430.5 2114918)">
					<stop  offset="0" style="stop-color:#E9EFF9"/>
					<stop  offset="1" style="stop-color:#FFFFFF;stop-opacity:0"/>
				</linearGradient>
				<circle id="Ellipse_4-4" class="st13" cx="9395.7" cy="8815.4" r="81.5"/>
			</g>
		</g>
	</g>
	<g id="Group_1675">
		<g id="Group_1663">
			<g id="Group_1662">
				<g id="Group_1653" class="st14">
					<line id="Line_104" class="st15" x1="8562" y1="11383.5" x2="8562" y2="11580.5"/>
					<g id="Group_1652">
						<g id="Group_1651" class="st9">
							<path id="Path_1875" class="st16" d="M8797.7,11324.2"/>
							<path id="Path_1876" class="st16" d="M8920.7,11218.2"/>
							<path id="Path_1877" class="st17" d="M8046,11612.5l165.4-199.5l188.5,98.6l161.1-129.3l0.9-0.3l231.5-67.1l126.6-112.6
								l123,5.2l546.9-277.9"/>
						</g>
						<line id="Line_105" class="st15" x1="8212" y1="11414.5" x2="8212" y2="11611.5"/>
						<line id="Line_106" class="st15" x1="8400" y1="11511.5" x2="8400" y2="11708.5"/>
						<line id="Line_107" class="st15" x1="8793" y1="11311.5" x2="8793" y2="11575.5"/>
						<line id="Line_108" class="st15" x1="8921" y1="11203.5" x2="8921" y2="11577.5"/>
						<line id="Line_109" class="st15" x1="9042" y1="11207.5" x2="9042" y2="11577.5"/>
						<circle id="Ellipse_154" class="st18" cx="8212" cy="11414.5" r="14"/>
						<circle id="Ellipse_155" class="st18" cx="8400" cy="11506.5" r="14"/>
						<circle id="Ellipse_156" class="st18" cx="8562" cy="11385.5" r="14"/>
						<circle id="Ellipse_157" class="st18" cx="8793" cy="11312.5" r="14"/>
						<circle id="Ellipse_158" class="st18" cx="8920" cy="11204.4" r="14"/>
						<circle id="Ellipse_159" class="st18" cx="9043" cy="11207.4" r="14"/>
					</g>
				</g>
			</g>
		</g>
		<g id="Group_1666">
			
				<linearGradient id="Rectangle_1458_1_" gradientUnits="userSpaceOnUse" x1="7657.8325" y1="12933.4551" x2="7657.8325" y2="12936.9512" gradientTransform="matrix(312 0 0 -113 -2380408.75 1473661.625)">
				<stop  offset="0" style="stop-color:#E9EFF9"/>
				<stop  offset="1" style="stop-color:#FFFFFF;stop-opacity:0"/>
			</linearGradient>
			<rect id="Rectangle_1458" x="8679" y="11770.5" class="st19" width="312" height="113"/>
		</g>
	</g>
</g>
<rect id="Rectangle_1540" x="8.5" y="8.2" class="st7" width="1926" height="5605"/>
</svg>
