<svg xmlns="http://www.w3.org/2000/svg" width="128.73" height="14.015" viewBox="0 0 128.73 14.015">
  <g id="klonbits-logo" transform="translate(-20.544 350.89)">
    <g id="KLONBITS">
      <path id="Path_1" data-name="Path 1" d="M12.1,0h1.726L7.471-7.51l5.941-6.216H11.745L3.686-5.431v-8.294H2.235V0H3.686V-3.608l2.8-2.843Zm6.039,0h9.137V-1.255H19.589V-13.726H18.138ZM37.373.118a6.9,6.9,0,0,0,7.2-6.981,6.9,6.9,0,0,0-7.2-6.981,6.908,6.908,0,0,0-7.216,6.981A6.908,6.908,0,0,0,37.373.118Zm0-1.294a5.581,5.581,0,0,1-5.784-5.686,5.581,5.581,0,0,1,5.784-5.686,5.56,5.56,0,0,1,5.745,5.686A5.56,5.56,0,0,1,37.373-1.176ZM59.825-13.726V-2.588L50.982-13.726h-1.2V0h1.451V-11.137L60.06,0h1.2V-13.726Zm16.51,6.647a3.187,3.187,0,0,0,2.1-3.118c0-2.235-1.765-3.529-4.824-3.529H67.688V0H74c3.431,0,5.157-1.333,5.157-3.667A3.277,3.277,0,0,0,76.335-7.079ZM73.511-12.53c2.2,0,3.471.843,3.471,2.49s-1.275,2.49-3.471,2.49H69.139V-12.53ZM73.982-1.2H69.139V-6.353h4.843c2.412,0,3.726.784,3.726,2.569C77.708-1.98,76.394-1.2,73.982-1.2ZM84.433,0h1.451V-13.726H84.433ZM94.982,0h1.451V-12.471h4.824v-1.255h-11.1v1.255h4.824ZM109.1.118c3.51,0,5.118-1.726,5.118-3.745,0-5-8.451-2.726-8.451-6.49,0-1.373,1.118-2.49,3.628-2.49a7.067,7.067,0,0,1,3.765,1.137l.49-1.157a7.748,7.748,0,0,0-4.255-1.216c-3.49,0-5.059,1.745-5.059,3.765,0,5.079,8.451,2.765,8.451,6.53,0,1.353-1.118,2.431-3.686,2.431a6.74,6.74,0,0,1-4.53-1.667L104-1.667A7.443,7.443,0,0,0,109.1.118Z" transform="translate(35.057 -337.046)" fill="#7e8c9c"/>
    </g>
    <circle id="Ellipse_5" data-name="Ellipse 5" cx="2.002" cy="2.002" r="2.002" transform="translate(20.544 -350.705)" fill="#7e8c9c"/>
    <circle id="Ellipse_6" data-name="Ellipse 6" cx="2.002" cy="2.002" r="2.002" transform="translate(20.544 -340.879)" fill="#7e8c9c"/>
    <path id="Path_18" data-name="Path 18" d="M32.139-340.879a2.009,2.009,0,0,0-.506.068l-.348.007a1.365,1.365,0,0,1-.972-.385l-.694-.675a1.356,1.356,0,0,1-.412-.969l.012-.462a1.948,1.948,0,0,0-.015-.971v-.506a1.447,1.447,0,0,1,.439-1.031l.643-.624a1.442,1.442,0,0,1,1.033-.409h.118A2.008,2.008,0,0,0,34.028-348a2.008,2.008,0,0,0-1.167-2.591,2.009,2.009,0,0,0-2.591,1.167,2.008,2.008,0,0,0,0,1.432v.233a1.445,1.445,0,0,1-.422,1.023l-.574.574a1.448,1.448,0,0,1-1.048.422l-.934-.016h-.023a2,2,0,0,0-2.006,2,2,2,0,0,0,2,2.006,2,2,0,0,0,.766-.151l.231,0a1.36,1.36,0,0,1,.985.4l.625.626a1.357,1.357,0,0,1,.4.962v.327a1.977,1.977,0,0,0-.133.713,2,2,0,0,0,2,2,2,2,0,0,0,2-2,2,2,0,0,0-2-2h0Z" fill="#7e8c9c"/>
  </g>
</svg>
