<svg id="services-bg" xmlns="http://www.w3.org/2000/svg" xmlns:xlink="http://www.w3.org/1999/xlink" width="1956" height="1759.482" viewBox="0 0 1956 1759.482">
  <defs>
    <linearGradient id="linear-gradient" x1="0.501" y1="0.02" x2="0.499" y2="0.817" gradientUnits="objectBoundingBox">
      <stop offset="0" stop-color="#e9eff9"/>
      <stop offset="0.199" stop-color="#edf2fa" stop-opacity="0.78"/>
      <stop offset="0.596" stop-color="#f6f9fc" stop-opacity="0.365"/>
      <stop offset="0.871" stop-color="#fcfdfe" stop-opacity="0.102"/>
      <stop offset="1" stop-color="#fff" stop-opacity="0"/>
    </linearGradient>
    <linearGradient id="linear-gradient-2" x1="0.5" y1="1.301" x2="0.5" y2="0.301" gradientUnits="objectBoundingBox">
      <stop offset="0" stop-color="#e9eff9"/>
      <stop offset="0.999" stop-color="#fff"/>
    </linearGradient>
    <clipPath id="clip-path">
      <rect id="Rectangle_173" data-name="Rectangle 173" width="1952" height="1421.383" fill="none"/>
    </clipPath>
    <linearGradient id="linear-gradient-3" x1="-0.993" y1="-0.024" x2="-0.997" y2="-1.033" xlink:href="#linear-gradient-2"/>
    <linearGradient id="linear-gradient-4" x1="-2.848" y1="-2.825" x2="1.137" y2="3.566" gradientUnits="objectBoundingBox">
      <stop offset="0" stop-color="#e9eff9"/>
      <stop offset="0.547" stop-color="#fff"/>
    </linearGradient>
    <linearGradient id="linear-gradient-5" x1="-5.721" y1="-6.285" x2="2.429" y2="9.804" xlink:href="#linear-gradient-4"/>
    <linearGradient id="linear-gradient-6" x1="-6.07" y1="-5.92" x2="0.359" y2="2.316" xlink:href="#linear-gradient-4"/>
    <linearGradient id="linear-gradient-7" x1="-2.953" y1="-3.915" x2="0.677" y2="2.092" xlink:href="#linear-gradient-4"/>
    <linearGradient id="linear-gradient-8" x1="0.196" y1="0.594" x2="-0.02" y2="-0.511" xlink:href="#linear-gradient-2"/>
    <linearGradient id="linear-gradient-9" x1="0.134" y1="0.752" x2="0.174" y2="0.205" xlink:href="#linear-gradient-2"/>
    <linearGradient id="linear-gradient-10" x1="-0.354" y1="0.221" x2="-0.181" y2="-0.486" xlink:href="#linear-gradient-2"/>
    <linearGradient id="linear-gradient-11" x1="-1.434" y1="-0.068" x2="-2.269" y2="-1.544" xlink:href="#linear-gradient-4"/>
  </defs>
  <rect id="Rectangle_172" data-name="Rectangle 172" width="1956" height="1759.482" opacity="0.51" fill="url(#linear-gradient)"/>
  <circle id="Ellipse_34" data-name="Ellipse 34" cx="201.5" cy="201.5" r="201.5" transform="translate(1484 794.256)" fill="url(#linear-gradient-2)"/>
  <g id="Group_298" data-name="Group 298" transform="translate(4)">
    <g id="Group_297" data-name="Group 297" clip-path="url(#clip-path)">
      <g id="Group_296" data-name="Group 296" transform="translate(-843.612 170.368)">
        <path id="Path_275" data-name="Path 275" d="M5583.869,8381.5c124.754,414.913,514.867,654.151,1037.942,105.848l-384.955,125.484Z" transform="translate(-4761.541 -7877.036)" fill="url(#linear-gradient-3)"/>
        <g id="Group_294" data-name="Group 294" transform="translate(819.567 328.195)">
          <path id="Path_276" data-name="Path 276" d="M5951.933,8395.488q-55.907,52.66-105.215,91.886c211.115,70.322,403.861,118.955,506.353,102.021,102.774-16.979,172.068-77.787,245.2-139.088C6328.72,8239.271,6201.344,8160.56,5951.933,8395.488Z" transform="translate(-5579.208 -8181.274)" fill="url(#linear-gradient-4)"/>
          <path id="Path_277" data-name="Path 277" d="M5949.229,8504.385c-121.884-40.6-250.943-89.691-368.1-135.631" transform="translate(-5581.126 -8202.875)" fill="url(#linear-gradient-5)"/>
          <path id="Path_278" data-name="Path 278" d="M7462.277,8196.348c-33.844,32.024-98.71,125.566-184.584,216.42,84.1,21.2,172.944,27.027,280.05-11.037l185.438,3.7C7663.818,8267.051,7571,8093.474,7462.277,8196.348Z" transform="translate(-5568.871 -8165.225)" fill="url(#linear-gradient-6)"/>
          <path id="Path_279" data-name="Path 279" d="M6942.326,8313.826c-166.466-1.447-260.777,73.6-349.443,147.917,49.723,38.927,104.277,82.353,165.333,129.146,252.51,193.529,490.995,23.418,660.164-155.561C7265.853,8396.881,7126.588,8315.429,6942.326,8313.826Z" transform="translate(-5573.818 -8192.709)" fill="url(#linear-gradient-7)"/>
        </g>
        <path id="Path_280" data-name="Path 280" d="M5179.082,8198.964c-84.669,9.595-153.6,47.155-238.626,21.632-70.96-21.3-129.334-70.012-154.749-126.945-38.875-87.09-11.859-185.98,44.784-266.591,24.432-34.77,65.937-71.233,114.841-63.464,31.089,4.938,53.424,26.763,68.7,48.979,34.653,50.381,64.144,93.189,144.507,96.952,48.394,2.266,95.842-9.891,141.77-22.3s92.843-25.373,141.316-24.8c193.886,2.286,262.759,175.984,334.726,288.987,66.88,105.017,171.951,231.013,324.553,241.784,133.782,9.441,282.279-78.692,370.679-150.91,99.912-81.621,203.41-170.082,316.574-241.832,274.415-173.988,403.8,84.894,626.714,163.485,130.747,46.1,228.394,8.338,309.368-82.335,66.849-74.856,113.768-164.989,207.58-218.2,64.5-36.579,173.279-42.372,206.686,14.95,28.169,48.337-17.839,102.2-61.122,142.761-81.086,75.995-162.941,152.579-261.793,213.648s-217.254,106.261-342.062,110.021c-243.765,7.348-482.674-140.935-715.155-81.829-113.122,28.76-198.169,101.589-287.743,163.891s-201.743,118.977-318.978,104.121c-115.247-14.6-197.977-92.644-286.925-153.059C5673.934,8248.314,5426.9,8170.878,5179.082,8198.964Z" transform="translate(-4767.438 -7762.538)" fill="url(#linear-gradient-8)"/>
        <g id="Group_295" data-name="Group 295" transform="translate(103.324 0.001)">
          <path id="Path_281" data-name="Path 281" d="M5013.3,7812.573c-15.281-22.216-37.616-44.041-68.705-48.979-27.855-4.425-53.3,5.51-74.57,21.3l74.417,198.759s113.409,65.782,394.813,175.347c40.74,15.861,87.575,34.518,138.424,54.71a1044.041,1044.041,0,0,1,104.517,27.372c-74.738-282.727-181.731-327.747-406.983-331.35-5.789.12-11.59.066-17.407-.206C5077.44,7905.763,5047.949,7862.954,5013.3,7812.573Z" transform="translate(-4870.021 -7762.539)" fill="#e9eff9"/>
        </g>
        <path id="Path_282" data-name="Path 282" d="M7923.676,8152.793c-13.808,31.485-44.617,56.139-76.249,77.881-91.954,63.2-196.3,123.829-316.547,145.741-160.32,29.207-300.362-41.975-444.336-85.1-84.274-25.235-177.188-38.251-263.871-18.983-189.426,42.089-405.177,319.756-610.563,317.06-169.493-2.231-267.892-98.385-376.529-169.39-79.54-51.985-160.367-111.163-246.519-152.824-114.359-55.351-238.079-79.857-380.548-15.834-1.5.673-2.958,1.346-4.455,2.019-75.752,34.943-171.641,90.284-256.861,40.152-46.44-27.292-61.621-76.755-69.683-122.422-1.072-6.2-2.108-12.408-3.038-18.612-.965-6.23-1.861-12.432-2.615-18.658a815.086,815.086,0,0,1,23.038-321.738c5.946-21.636,19.479-47.731,47.155-48.555,29.12-.88,44.392,26.547,53.858,48.576,45.339,105.381,129.27,188.935,231.872,257.4,104.8,69.973,229.108,124.146,351.609,169.653.765.3,1.529.563,2.293.859,91.419,33.868,177.96,72.08,269.285,105.581,182.826,67.032,374.8,91.976,555.955,6.435,166.677-78.688,284.233-229.388,499.761-216.147,201.852,12.378,305.651,205.752,503.3,203.009,66.33-.924,128.288-29.538,174.827-67.368,59.193-48.091,92.763-110.551,145.367-162.54a279.7,279.7,0,0,1,29.437-25.692,168.29,168.29,0,0,1,43.29-23.758c29.281-10.574,65.605-11.507,92.1,3.02C7929.379,8081.458,7937.448,8121.306,7923.676,8152.793Z" transform="translate(-4766.732 -7762.718)" fill="url(#linear-gradient-9)"/>
        <path id="Path_283" data-name="Path 283" d="M7518.9,8456.105a602.234,602.234,0,0,0,110.2-31.58c-573.229-358.706-635.221-276.38-1107.371,95.362l.01.006c99.713-72.151,197.417-147.529,288.969-167.88,86.677-19.269,179.61-6.247,263.86,18.983C7218.533,8414.114,7358.587,8485.321,7518.9,8456.105Z" transform="translate(-4754.765 -7842.402)" fill="url(#linear-gradient-10)"/>
        <path id="Path_284" data-name="Path 284" d="M5589.041,8336.6c-114.359-55.349-238.079-79.855-380.548-15.832-1.5.671-2.958,1.345-4.455,2.019-75.752,34.942-171.641,90.282-256.861,40.151-46.44-27.292-61.621-76.756-69.683-122.423-1.072-6.2-2.108-12.408-3.038-18.611-.93-6.229-1.825-12.433-2.616-18.659q-2.369-18.683-3.892-37.4c92.647,1.259,229.294-24.822,359.816-26.91q17.4-.284,34.642.046c138.276,2.761,264.463,38.277,316.968,169.605A295.9,295.9,0,0,1,5589.041,8336.6Z" transform="translate(-4766.712 -7832.14)" fill="url(#linear-gradient-11)"/>
      </g>
    </g>
  </g>
  <circle id="Ellipse_35" data-name="Ellipse 35" cx="100.5" cy="100.5" r="100.5" transform="translate(1283.398 694.229)" fill="url(#linear-gradient-2)"/>
</svg>
