<?xml version="1.0" encoding="utf-8"?>
<!-- Generator: Adobe Illustrator 23.0.6, SVG Export Plug-In . SVG Version: 6.00 Build 0)  -->
<svg version="1.1" id="katman_1" xmlns="http://www.w3.org/2000/svg" xmlns:xlink="http://www.w3.org/1999/xlink" x="0px" y="0px"
	 viewBox="0 0 1920 1080" style="enable-background:new 0 0 1920 1080;" xml:space="preserve">
<style type="text/css">
	.st0{clip-path:url(#SVGID_2_);}
	.st1{fill:url(#Path_1829_1_);}
	.st2{fill:url(#Path_1830_1_);}
	.st3{fill:url(#Path_1831_1_);}
	.st4{fill:url(#Path_1832_1_);}
	.st5{fill:url(#Path_1833_1_);}
	.st6{fill:url(#Path_1834_1_);}
	.st7{fill:#E9EFF9;}
	.st8{fill:url(#Path_1836_1_);}
	.st9{fill:url(#Path_1837_1_);}
	.st10{fill:url(#Path_1838_1_);}
</style>
<g id="Group_1548" transform="translate(-10591 -7482.666)">
	<g>
		<defs>
			<rect id="SVGID_1_" x="10591.9" y="7031.5" width="1994" height="1769.5"/>
		</defs>
		<clipPath id="SVGID_2_">
			<use xlink:href="#SVGID_1_"  style="overflow:visible;"/>
		</clipPath>
		<g id="Group_1547" class="st0">
			<g id="Group_1546">
				
					<linearGradient id="Path_1829_1_" gradientUnits="userSpaceOnUse" x1="10591.958" y1="8563.9443" x2="10591.9541" y2="8564.9375" gradientTransform="matrix(1034.1621 0 0 -536.7959 -10941956 4605587.5)">
					<stop  offset="0" style="stop-color:#E9EFF9"/>
					<stop  offset="0.999" style="stop-color:#FFFFFF"/>
				</linearGradient>
				<path id="Path_1829" class="st1" d="M11325.2,8088.3c248.1,469.7,698.3,662.2,1034.2-128l-332.8,246.2L11325.2,8088.3z"/>
				<g id="Group_1544">
					
						<linearGradient id="Path_1830_1_" gradientUnits="userSpaceOnUse" x1="10590.3369" y1="8566.8174" x2="10594.542" y2="8560.2686" gradientTransform="matrix(713.8047 0 0 -412.0215 -7548434.5 3536897)">
						<stop  offset="0" style="stop-color:#E9EFF9"/>
						<stop  offset="0.547" style="stop-color:#FFFFFF"/>
					</linearGradient>
					<path id="Path_1830" class="st2" d="M11693.9,8043c-25.2,51.5-49.6,97.1-73.2,136.8c225.4,32.8,426.3,44,520-1.7
						c93.9-45.8,142.1-136.2,193.8-228.2C12009.4,7761.7,11862.2,7698.2,11693.9,8043z"/>
					
						<linearGradient id="Path_1831_1_" gradientUnits="userSpaceOnUse" x1="10589.1914" y1="8581.8125" x2="10596.7529" y2="8544.8115" gradientTransform="matrix(396.9668 0 0 -72.9268 -4192788.75 633283.0625)">
						<stop  offset="0" style="stop-color:#E9EFF9"/>
						<stop  offset="0.547" style="stop-color:#FFFFFF"/>
					</linearGradient>
					<path id="Path_1831" class="st3" d="M11716.3,8149.4c-130.1-18.9-269.8-46.4-397-72.9"/>
					
						<linearGradient id="Path_1832_1_" gradientUnits="userSpaceOnUse" x1="10587.9473" y1="8568.4189" x2="10594.6641" y2="8560.9912" gradientTransform="matrix(446.917 0 0 -363.2344 -4720187 3118695.75)">
						<stop  offset="0" style="stop-color:#E9EFF9"/>
						<stop  offset="0.547" style="stop-color:#FFFFFF"/>
					</linearGradient>
					<path id="Path_1832" class="st4" d="M13104.9,7447.5c-22.8,47-56.6,175.8-111.5,306.5c87.7,4.9,175.2-10,266.8-82.3l180.1-41.2
						C13321.2,7483.2,13178.1,7296.7,13104.9,7447.5z"/>
					
						<linearGradient id="Path_1833_1_" gradientUnits="userSpaceOnUse" x1="10590.1611" y1="8567.3955" x2="10593.9688" y2="8561.3857" gradientTransform="matrix(788.4355 0 0 -449.0811 -8338210.5 3854136.75)">
						<stop  offset="0" style="stop-color:#E9EFF9"/>
						<stop  offset="0.547" style="stop-color:#FFFFFF"/>
					</linearGradient>
					<path id="Path_1833" class="st5" d="M12626.1,7685.4c-161.1,39.3-229,153-291.7,264.5c60,34.7,126,73.6,199.3,115.1
						c303.3,171.2,481-92.7,589.1-350.3C12963.9,7705.9,12804.4,7641.9,12626.1,7685.4z"/>
				</g>
				
					<linearGradient id="Path_1834_1_" gradientUnits="userSpaceOnUse" x1="10592.5273" y1="8563.0537" x2="10592.3018" y2="8563.8584" gradientTransform="matrix(3247.1338 0 0 -1309.8706 -34382636 11224940)">
					<stop  offset="0" style="stop-color:#E9EFF9"/>
					<stop  offset="0.999" style="stop-color:#FFFFFF"/>
				</linearGradient>
				<path id="Path_1834" class="st6" d="M10908,8107.4c-78.7,32.4-133.7,94.7-223.6,84.9c-75-8.2-146.4-52.6-188.4-115
					c-64.3-95.5-68.7-221.4-38.9-332.6c12.9-48,41.7-102.2,91.3-104.8c31.5-1.7,59.8,19.1,81.4,42.2c49,52.2,90.6,96.6,169.3,81.4
					c47.4-9.2,89.4-35.5,129.9-61.8s81.8-53.5,128.7-64.7c187.8-45,307.7,147.6,412,266.1c96.9,110.2,237.1,236.3,387.6,211.7
					c132-21.6,248.2-164.5,311.2-273.3c71.3-123.1,143.9-255.3,231-369.7c211.2-277.5,415.8,2.9,655.1,42.8
					c140.4,23.4,223-46.2,273.2-175.5c41.5-106.8,59-227,133.1-314.3c51-60,154.2-93.8,204-32.9c42.1,51.4,14.3,127.7-15,187.3
					c-54.8,111.6-110.3,224.2-186.8,322.2s-176.9,181.7-296.2,217c-233,68.9-509.2-51.1-715.3,77.5
					c-100.3,62.6-159.9,171.4-227.2,268.6s-158,193.2-275.7,204.2c-115.7,10.8-219.6-63-324-113.9
					C11400.7,8045.1,11138.5,8012.5,10908,8107.4z"/>
				<g id="Group_1545">
					<path id="Path_1835" class="st7" d="M10629.7,7682c-21.6-23-49.9-43.9-81.4-42.2c-28.2,1.5-49.7,19.8-65.4,44.1l133,221.4
						c0,0,129.7,51.4,435,114.3c44.2,9.1,95.1,20.1,150.4,31.9c36.5,0.1,73,2.6,109.3,7.3c-159.2-322.6-276.3-350.6-494.8-299.4
						c-5.5,1.6-11.2,2.9-16.9,4C10720.3,7778.6,10678.7,7734.3,10629.7,7682z"/>
				</g>
				
					<linearGradient id="Path_1836_1_" gradientUnits="userSpaceOnUse" x1="10592.1162" y1="8561.5186" x2="10592.1572" y2="8562.0459" gradientTransform="matrix(3028.0703 0 0 -1063.937 -32062242 9119156)">
					<stop  offset="0" style="stop-color:#E9EFF9"/>
					<stop  offset="0.999" style="stop-color:#FFFFFF"/>
				</linearGradient>
				<path id="Path_1836" class="st8" d="M13542.8,7375.3c-3.6,41.4-25.8,78.7-49.6,112.7c-69.3,98.9-151.3,197.7-260.6,253.8
					c-145.7,74.7-302.8,23.4-455,6.8c-89.1-9.7-182.8-2.5-260.5,42.1c-169.8,97.4-292.5,485.5-491.5,532.8
					c-164.2,39.1-288.8-52.7-415.5-111.6c-92.8-43.1-189-94.6-284.9-123.6c-127.4-38.6-254.3-37.7-372.1,74.6
					c-1.2,1.2-2.4,2.4-3.7,3.5c-62.3,60.8-137.8,151.2-235.5,111.7c-53.2-21.5-83.1-77.4-104.9-130.5c-2.9-7.2-5.9-14.4-8.7-21.7
					c-2.9-7.3-5.6-14.5-8.3-21.9c-46.5-126.3-72.4-259.2-76.8-393.8c-0.9-27.6,4.1-62.4,30.6-70.2c27.8-8.2,51,21.1,66.9,45.3
					c76.2,115.9,182.9,196.1,303,253.4c122.7,58.6,259.3,93.3,391.5,118c0.8,0.2,1.6,0.3,2.5,0.5c98.6,18.3,193.9,43.1,292.4,61
					c197.1,35.8,390,18.6,538.5-129.2c136.6-136,203.6-346.7,415.7-383.8c198.6-34.8,358.3,172.9,548.2,120.9
					c63.7-17.5,114.7-67.2,148-124.3c42.3-72.6,55.5-156.2,90.2-231.9c5.9-13.2,12.8-26,20.5-38.2c9.5-14.8,20.7-28.4,34.5-39.3
					c25-20,59.8-30,89.8-19C13526.3,7287.8,13546.4,7333.9,13542.8,7375.3z"/>
				
					<linearGradient id="Path_1837_1_" gradientUnits="userSpaceOnUse" x1="10590.7461" y1="8560.8623" x2="10590.9307" y2="8561.3857" gradientTransform="matrix(1039.2002 0 0 -542.7544 -10994354 4656175)">
					<stop  offset="0" style="stop-color:#D6E9FF"/>
					<stop  offset="0.601" style="stop-color:#F7F9FD"/>
					<stop  offset="1" style="stop-color:#F7F9FD"/>
				</linearGradient>
				<path id="Path_1837" class="st9" d="M13232.6,7741.8c34.8-17.9,66.9-40.1,96.6-65.2c-663.6-291.5-698.1-176.9-1039.2,387.8l0,0
					c74-111.6,145.1-226.6,227.1-273.7c77.7-44.6,171.4-51.8,260.5-42.1C12929.8,7765.1,13086.9,7816.5,13232.6,7741.8z"/>
				
					<linearGradient id="Path_1838_1_" gradientUnits="userSpaceOnUse" x1="10591.9775" y1="8564.6455" x2="10591.1738" y2="8565.8428" gradientTransform="matrix(748.4072 0 0 -371.2725 -7915988.5 3188056.25)">
					<stop  offset="0" style="stop-color:#E9EFF9"/>
					<stop  offset="0.547" style="stop-color:#FFFFFF"/>
				</linearGradient>
				<path id="Path_1838" class="st10" d="M11325.2,8088.3c-127.4-38.6-254.3-37.7-372.1,74.6c-1.2,1.2-2.4,2.4-3.7,3.5
					c-62.3,60.8-137.8,151.2-235.5,111.7c-53.2-21.5-83.1-77.4-104.9-130.5c-2.9-7.2-5.9-14.4-8.7-21.7c-2.8-7.3-5.6-14.5-8.3-21.9
					c-5.4-14.6-10.4-29.4-15.3-44.2c89.8-21.3,213.6-86.4,338.9-121.1c11.1-3.1,22.3-5.9,33.4-8.5c134.3-30.7,267-19,358.1,126.5
					C11313.5,8066.8,11319.4,8077.2,11325.2,8088.3z"/>
			</g>
		</g>
	</g>
</g>
</svg>
